<svg width="17" height="19" viewBox="0 0 17 19" fill="none" xmlns="http://www.w3.org/2000/svg">
<path d="M10.5833 9.5V17.7083C10.625 18.0208 10.5208 18.3542 10.2813 18.5729C10.1849 18.6695 10.0704 18.7461 9.94441 18.7984C9.8184 18.8506 9.68331 18.8775 9.54689 18.8775C9.41046 18.8775 9.27538 18.8506 9.14936 18.7984C9.02335 18.7461 8.90888 18.6695 8.81251 18.5729L6.71876 16.4792C6.60522 16.3681 6.51888 16.2322 6.46648 16.0822C6.41408 15.9323 6.39704 15.7722 6.41668 15.6146V9.5H6.38543L0.385431 1.8125C0.216273 1.59534 0.139945 1.32006 0.173127 1.0468C0.206308 0.773544 0.346301 0.524527 0.562515 0.354167C0.760431 0.208333 0.979181 0.125 1.20835 0.125H15.7917C16.0208 0.125 16.2396 0.208333 16.4375 0.354167C16.6537 0.524527 16.7937 0.773544 16.8269 1.0468C16.8601 1.32006 16.7838 1.59534 16.6146 1.8125L10.6146 9.5H10.5833Z" fill="#115FAA"/>
</svg>
