<svg width="55" height="45" viewBox="0 0 55 45" fill="none" xmlns="http://www.w3.org/2000/svg">
<mask id="path-1-inside-1_218_42" fill="white">
<path d="M10.2916 44.625C9.59506 44.625 9.01161 44.389 8.54125 43.917C8.07089 43.445 7.83489 42.8616 7.83325 42.1667V39.7083C5.78464 39.7083 4.04332 38.9913 2.60929 37.5573C1.17527 36.1233 0.458252 34.3819 0.458252 32.3333V20.0417C0.458252 17.9931 1.17527 16.2517 2.60929 14.8177C4.04332 13.3837 5.78464 12.6667 7.83325 12.6667V7.75C7.83325 5.70139 8.55027 3.96007 9.98429 2.52604C11.4183 1.09201 13.1596 0.375 15.2083 0.375H39.7916C41.8402 0.375 43.5815 1.09201 45.0155 2.52604C46.4496 3.96007 47.1666 5.70139 47.1666 7.75V12.6667C49.2152 12.6667 50.9565 13.3837 52.3905 14.8177C53.8246 16.2517 54.5416 17.9931 54.5416 20.0417V32.3333C54.5416 34.3819 53.8246 36.1233 52.3905 37.5573C50.9565 38.9913 49.2152 39.7083 47.1666 39.7083V42.1667C47.1666 42.8632 46.9306 43.4475 46.4586 43.9195C45.9866 44.3915 45.4031 44.6266 44.7083 44.625C44.0134 44.6234 43.4299 44.3874 42.9579 43.917C42.4859 43.4466 42.2499 42.8632 42.2499 42.1667V39.7083H12.7499V42.1667C12.7499 42.8632 12.5139 43.4475 12.0419 43.9195C11.5699 44.3915 10.9865 44.6266 10.2916 44.625ZM7.83325 34.7917H47.1666C47.8631 34.7917 48.4474 34.5557 48.9194 34.0837C49.3914 33.6117 49.6266 33.0282 49.6249 32.3333V20.0417C49.6249 19.3451 49.3889 18.7617 48.9169 18.2913C48.4449 17.821 47.8615 17.585 47.1666 17.5833C46.4717 17.5817 45.8883 17.8177 45.4163 18.2913C44.9443 18.765 44.7083 19.3484 44.7083 20.0417V29.875H10.2916V20.0417C10.2916 19.3451 10.0556 18.7617 9.58358 18.2913C9.11159 17.821 8.52814 17.585 7.83325 17.5833C7.13836 17.5817 6.55492 17.8177 6.08292 18.2913C5.61092 18.765 5.37492 19.3484 5.37492 20.0417V32.3333C5.37492 33.0299 5.61092 33.6141 6.08292 34.0861C6.55492 34.5581 7.13836 34.7933 7.83325 34.7917ZM15.2083 24.9583H39.7916V20.0417C39.7916 18.9354 40.0169 17.9316 40.4676 17.0302C40.9183 16.1288 41.5124 15.3299 42.2499 14.6333V7.75C42.2499 7.05347 42.0139 6.47003 41.5419 5.99967C41.0699 5.52931 40.4865 5.29331 39.7916 5.29167H15.2083C14.5117 5.29167 13.9283 5.52767 13.4579 5.99967C12.9876 6.47167 12.7516 7.05511 12.7499 7.75V14.6333C13.4874 15.3299 14.0815 16.1288 14.5322 17.0302C14.9829 17.9316 15.2083 18.9354 15.2083 20.0417V24.9583Z"/>
</mask>
<path d="M10.2916 44.625C9.59506 44.625 9.01161 44.389 8.54125 43.917C8.07089 43.445 7.83489 42.8616 7.83325 42.1667V39.7083C5.78464 39.7083 4.04332 38.9913 2.60929 37.5573C1.17527 36.1233 0.458252 34.3819 0.458252 32.3333V20.0417C0.458252 17.9931 1.17527 16.2517 2.60929 14.8177C4.04332 13.3837 5.78464 12.6667 7.83325 12.6667V7.75C7.83325 5.70139 8.55027 3.96007 9.98429 2.52604C11.4183 1.09201 13.1596 0.375 15.2083 0.375H39.7916C41.8402 0.375 43.5815 1.09201 45.0155 2.52604C46.4496 3.96007 47.1666 5.70139 47.1666 7.75V12.6667C49.2152 12.6667 50.9565 13.3837 52.3905 14.8177C53.8246 16.2517 54.5416 17.9931 54.5416 20.0417V32.3333C54.5416 34.3819 53.8246 36.1233 52.3905 37.5573C50.9565 38.9913 49.2152 39.7083 47.1666 39.7083V42.1667C47.1666 42.8632 46.9306 43.4475 46.4586 43.9195C45.9866 44.3915 45.4031 44.6266 44.7083 44.625C44.0134 44.6234 43.4299 44.3874 42.9579 43.917C42.4859 43.4466 42.2499 42.8632 42.2499 42.1667V39.7083H12.7499V42.1667C12.7499 42.8632 12.5139 43.4475 12.0419 43.9195C11.5699 44.3915 10.9865 44.6266 10.2916 44.625ZM7.83325 34.7917H47.1666C47.8631 34.7917 48.4474 34.5557 48.9194 34.0837C49.3914 33.6117 49.6266 33.0282 49.6249 32.3333V20.0417C49.6249 19.3451 49.3889 18.7617 48.9169 18.2913C48.4449 17.821 47.8615 17.585 47.1666 17.5833C46.4717 17.5817 45.8883 17.8177 45.4163 18.2913C44.9443 18.765 44.7083 19.3484 44.7083 20.0417V29.875H10.2916V20.0417C10.2916 19.3451 10.0556 18.7617 9.58358 18.2913C9.11159 17.821 8.52814 17.585 7.83325 17.5833C7.13836 17.5817 6.55492 17.8177 6.08292 18.2913C5.61092 18.765 5.37492 19.3484 5.37492 20.0417V32.3333C5.37492 33.0299 5.61092 33.6141 6.08292 34.0861C6.55492 34.5581 7.13836 34.7933 7.83325 34.7917ZM15.2083 24.9583H39.7916V20.0417C39.7916 18.9354 40.0169 17.9316 40.4676 17.0302C40.9183 16.1288 41.5124 15.3299 42.2499 14.6333V7.75C42.2499 7.05347 42.0139 6.47003 41.5419 5.99967C41.0699 5.52931 40.4865 5.29331 39.7916 5.29167H15.2083C14.5117 5.29167 13.9283 5.52767 13.4579 5.99967C12.9876 6.47167 12.7516 7.05511 12.7499 7.75V14.6333C13.4874 15.3299 14.0815 16.1288 14.5322 17.0302C14.9829 17.9316 15.2083 18.9354 15.2083 20.0417V24.9583Z" fill="#115FAA" fill-opacity="0.9"/>
<path d="M10.2916 44.625L10.3128 35.625L10.3022 35.625H10.2916V44.625ZM7.83325 42.1667H-1.16675V42.1773L-1.16672 42.1879L7.83325 42.1667ZM7.83325 39.7083H16.8333V30.7083H7.83325V39.7083ZM7.83325 12.6667V21.6667H16.8333V12.6667H7.83325ZM47.1666 12.6667H38.1666V21.6667H47.1666V12.6667ZM47.1666 39.7083V30.7083H38.1666V39.7083H47.1666ZM42.2499 39.7083H51.2499V30.7083H42.2499V39.7083ZM12.7499 39.7083V30.7083H3.74992V39.7083H12.7499ZM7.83325 34.7917V25.7917H7.82264L7.81203 25.7917L7.83325 34.7917ZM49.6249 32.3333H40.6249V32.3439L40.6249 32.3546L49.6249 32.3333ZM44.7083 29.875V38.875H53.7083V29.875H44.7083ZM10.2916 29.875H1.29159V38.875H10.2916V29.875ZM15.2083 24.9583H6.20825V33.9583H15.2083V24.9583ZM39.7916 24.9583V33.9583H48.7916V24.9583H39.7916ZM42.2499 14.6333L48.4295 21.1765L51.2499 18.5128V14.6333H42.2499ZM39.7916 5.29167L39.8128 -3.70831L39.8022 -3.70833H39.7916V5.29167ZM12.7499 7.75L3.74994 7.72877L3.74992 7.73939V7.75H12.7499ZM12.7499 14.6333H3.74992V18.5128L6.57031 21.1765L12.7499 14.6333ZM15.2083 20.0417H24.2083H15.2083ZM10.2916 35.625C10.9765 35.625 11.817 35.7449 12.7064 36.1047C13.6038 36.4677 14.3467 36.9926 14.9163 37.5641L2.16623 50.2699C4.40871 52.5202 7.32348 53.625 10.2916 53.625V35.625ZM14.9163 37.5641C15.4788 38.1286 15.996 38.8636 16.3548 39.7506C16.7106 40.6303 16.8316 41.4632 16.8332 42.1454L-1.16672 42.1879C-1.15975 45.1437 -0.0582606 48.0376 2.16623 50.2699L14.9163 37.5641ZM16.8333 42.1667V39.7083H-1.16675V42.1667H16.8333ZM7.83325 30.7083C7.88054 30.7083 8.10902 30.7214 8.41755 30.8485C8.72789 30.9763 8.91534 31.1354 8.97325 31.1933L-3.75467 43.9213C-0.613644 47.0623 3.42494 48.7083 7.83325 48.7083V30.7083ZM8.97325 31.1933C9.03117 31.2512 9.19033 31.4387 9.31812 31.749C9.44516 32.0576 9.45825 32.286 9.45825 32.3333H-8.54175C-8.54175 36.7416 -6.89569 40.7802 -3.75467 43.9213L8.97325 31.1933ZM9.45825 32.3333V20.0417H-8.54175V32.3333H9.45825ZM9.45825 20.0417C9.45825 20.089 9.44516 20.3174 9.31812 20.626C9.19033 20.9363 9.03117 21.1238 8.97325 21.1817L-3.75467 8.45375C-6.89569 11.5948 -8.54175 15.6333 -8.54175 20.0417H9.45825ZM8.97325 21.1817C8.91534 21.2396 8.72789 21.3987 8.41755 21.5265C8.10902 21.6536 7.88054 21.6667 7.83325 21.6667V3.66667C3.42493 3.66667 -0.613648 5.31273 -3.75467 8.45375L8.97325 21.1817ZM16.8333 12.6667V7.75H-1.16675V12.6667H16.8333ZM16.8333 7.75C16.8333 7.79729 16.8202 8.02577 16.6931 8.3343C16.5653 8.64464 16.4062 8.83209 16.3483 8.89L3.62033 -3.83792C0.479311 -0.696898 -1.16675 3.34168 -1.16675 7.75H16.8333ZM16.3483 8.89C16.2903 8.94791 16.1029 9.10708 15.7926 9.23486C15.484 9.36191 15.2555 9.375 15.2083 9.375V-8.625C10.7999 -8.625 6.76135 -6.97894 3.62033 -3.83792L16.3483 8.89ZM15.2083 9.375H39.7916V-8.625H15.2083V9.375ZM39.7916 9.375C39.7443 9.375 39.5158 9.36191 39.2073 9.23486C38.8969 9.10708 38.7095 8.94791 38.6516 8.89L51.3795 -3.83792C48.2385 -6.97894 44.1999 -8.625 39.7916 -8.625V9.375ZM38.6516 8.89C38.5937 8.83209 38.4345 8.64464 38.3067 8.3343C38.1797 8.02577 38.1666 7.79729 38.1666 7.75H56.1666C56.1666 3.34169 54.5205 -0.696896 51.3795 -3.83792L38.6516 8.89ZM38.1666 7.75V12.6667H56.1666V7.75H38.1666ZM47.1666 21.6667C47.1193 21.6667 46.8908 21.6536 46.5823 21.5265C46.2719 21.3987 46.0845 21.2396 46.0266 21.1817L58.7545 8.45375C55.6135 5.31273 51.5749 3.66667 47.1666 3.66667V21.6667ZM46.0266 21.1817C45.9687 21.1238 45.8095 20.9363 45.6817 20.626C45.5547 20.3174 45.5416 20.089 45.5416 20.0417H63.5416C63.5416 15.6333 61.8955 11.5948 58.7545 8.45375L46.0266 21.1817ZM45.5416 20.0417V32.3333H63.5416V20.0417H45.5416ZM45.5416 32.3333C45.5416 32.286 45.5547 32.0576 45.6817 31.749C45.8095 31.4387 45.9687 31.2512 46.0266 31.1933L58.7545 43.9213C61.8955 40.7802 63.5416 36.7417 63.5416 32.3333H45.5416ZM46.0266 31.1933C46.0845 31.1354 46.2719 30.9763 46.5823 30.8485C46.8908 30.7214 47.1193 30.7083 47.1666 30.7083V48.7083C51.5749 48.7083 55.6135 47.0623 58.7545 43.9213L46.0266 31.1933ZM38.1666 39.7083V42.1667H56.1666V39.7083H38.1666ZM38.1666 42.1667C38.1666 41.4816 38.2866 40.643 38.6446 39.7565C39.0058 38.8624 39.5275 38.1226 40.0946 37.5555L52.8225 50.2834C55.0624 48.0435 56.1666 45.1345 56.1666 42.1667H38.1666ZM40.0946 37.5555C40.6616 36.9885 41.4033 36.4648 42.3023 36.1025C43.1939 35.7431 44.0383 35.6234 44.7295 35.625L44.687 53.625C47.6666 53.632 50.5815 52.5244 52.8225 50.2834L40.0946 37.5555ZM44.7295 35.625C45.4117 35.6266 46.2446 35.7477 47.1243 36.1035C48.0114 36.4623 48.7463 36.9794 49.3108 37.542L36.605 50.292C38.8373 52.5165 41.7312 53.618 44.687 53.625L44.7295 35.625ZM49.3108 37.542C49.8823 38.1115 50.4072 38.8544 50.7702 39.7518C51.13 40.6413 51.2499 41.4818 51.2499 42.1667H33.2499C33.2499 45.1348 34.3547 48.0495 36.605 50.292L49.3108 37.542ZM51.2499 42.1667V39.7083H33.2499V42.1667H51.2499ZM42.2499 30.7083H12.7499V48.7083H42.2499V30.7083ZM3.74992 39.7083V42.1667H21.7499V39.7083H3.74992ZM3.74992 42.1667C3.74992 41.4816 3.8699 40.643 4.22798 39.7565C4.58913 38.8624 5.11085 38.1226 5.67796 37.5555L18.4059 50.2834C20.6458 48.0435 21.7499 45.1345 21.7499 42.1667H3.74992ZM5.67796 37.5555C6.24497 36.9885 6.98668 36.4648 7.88559 36.1025C8.77722 35.7431 9.62169 35.6234 10.3128 35.625L10.2704 53.625C13.2499 53.632 16.1649 52.5244 18.4059 50.2834L5.67796 37.5555ZM7.83325 43.7917H47.1666V25.7917H7.83325V43.7917ZM47.1666 43.7917C50.1344 43.7917 53.0435 42.6875 55.2833 40.4476L42.5554 27.7197C43.1225 27.1526 43.8623 26.6309 44.7564 26.2697C45.6429 25.9117 46.4815 25.7917 47.1666 25.7917V43.7917ZM55.2833 40.4476C57.5243 38.2066 58.6319 35.2917 58.6249 32.3121L40.6249 32.3546C40.6233 31.6634 40.743 30.819 41.1024 29.9273C41.4647 29.0284 41.9884 28.2867 42.5554 27.7197L55.2833 40.4476ZM58.6249 32.3333V20.0417H40.6249V32.3333H58.6249ZM58.6249 20.0417C58.6249 17.0736 57.5201 14.1588 55.2698 11.9163L42.564 24.6664C41.9925 24.0968 41.4676 23.3539 41.1046 22.4565C40.7448 21.5671 40.6249 20.7265 40.6249 20.0417H58.6249ZM55.2698 11.9163C53.0376 9.69182 50.1436 8.59033 47.1878 8.58336L47.1454 26.5833C46.4631 26.5817 45.6302 26.4607 44.7505 26.1049C43.8635 25.7461 43.1285 25.2289 42.564 24.6664L55.2698 11.9163ZM47.1878 8.58336C44.1984 8.57631 41.28 9.69192 39.0413 11.9384L51.7912 24.6443C51.2257 25.2118 50.484 25.7378 49.5827 26.1024C48.6884 26.4641 47.8403 26.5849 47.1454 26.5833L47.1878 8.58336ZM39.0413 11.9384C36.8205 14.1669 35.7083 17.0646 35.7083 20.0417H53.7083C53.7083 20.7341 53.5863 21.5745 53.2285 22.459C52.8682 23.3499 52.3499 24.0837 51.7912 24.6443L39.0413 11.9384ZM35.7083 20.0417V29.875H53.7083V20.0417H35.7083ZM44.7083 20.875H10.2916V38.875H44.7083V20.875ZM19.2916 29.875V20.0417H1.29159V29.875H19.2916ZM19.2916 20.0417C19.2916 17.0735 18.1867 14.1588 15.9365 11.9163L3.2307 24.6664C2.6592 24.0968 2.13429 23.3539 1.77129 22.4565C1.41152 21.5671 1.29159 20.7265 1.29159 20.0417H19.2916ZM15.9365 11.9163C13.7042 9.69182 10.8103 8.59033 7.85448 8.58336L7.81203 26.5833C7.12975 26.5817 6.29685 26.4607 5.41718 26.1049C4.53014 25.7461 3.79521 25.2289 3.2307 24.6664L15.9365 11.9163ZM7.85448 8.58336C4.86503 8.57631 1.94666 9.69192 -0.292062 11.9384L12.4579 24.6443C11.8924 25.2118 11.1506 25.7378 10.2493 26.1024C9.35503 26.4641 8.50701 26.5849 7.81203 26.5833L7.85448 8.58336ZM-0.292062 11.9384C-2.51288 14.1669 -3.62508 17.0646 -3.62508 20.0417H14.3749C14.3749 20.7341 14.253 21.5745 13.8952 22.459C13.5348 23.3499 13.0165 24.0837 12.4579 24.6443L-0.292062 11.9384ZM-3.62508 20.0417V32.3333H14.3749V20.0417H-3.62508ZM-3.62508 32.3333C-3.62508 35.3011 -2.52094 38.2102 -0.281042 40.4501L12.4469 27.7222C13.014 28.2893 13.5357 29.0291 13.8969 29.9232C14.2549 30.8097 14.3749 31.6483 14.3749 32.3333H-3.62508ZM-0.281042 40.4501C1.95996 42.6911 4.87491 43.7987 7.85448 43.7916L7.81203 25.7917C8.50315 25.7901 9.34762 25.9097 10.2392 26.2691C11.1382 26.6315 11.8799 27.1551 12.4469 27.7222L-0.281042 40.4501ZM15.2083 33.9583H39.7916V15.9583H15.2083V33.9583ZM48.7916 24.9583V20.0417H30.7916V24.9583H48.7916ZM48.7916 20.0417C48.7916 20.1023 48.7851 20.2388 48.742 20.4305C48.6983 20.6253 48.6251 20.8399 48.5175 21.0551L32.4178 13.0053C31.283 15.2748 30.7916 17.6769 30.7916 20.0417H48.7916ZM48.5175 21.0551C48.5098 21.0705 48.4949 21.0963 48.4734 21.1253C48.4519 21.1542 48.4346 21.1717 48.4295 21.1765L36.0703 8.09022C34.572 9.50532 33.3428 11.1552 32.4178 13.0053L48.5175 21.0551ZM51.2499 14.6333V7.75H33.2499V14.6333H51.2499ZM51.2499 7.75C51.2499 4.78187 50.1451 1.86711 47.8948 -0.375352L35.189 12.3747C34.6175 11.8052 34.0926 11.0623 33.7296 10.1648C33.3699 9.27541 33.2499 8.43489 33.2499 7.75H51.2499ZM47.8948 -0.375352C45.6626 -2.59984 42.7687 -3.70134 39.8128 -3.70831L39.7704 14.2916C39.0881 14.29 38.2552 14.169 37.3755 13.8132C36.4885 13.4544 35.7535 12.9372 35.189 12.3747L47.8948 -0.375352ZM39.7916 -3.70833H15.2083V14.2917H39.7916V-3.70833ZM15.2083 -3.70833C12.2401 -3.70833 9.32537 -2.6035 7.0829 -0.353217L19.8329 12.3526C19.2634 12.9241 18.5205 13.449 17.6231 13.812C16.7337 14.1717 15.8931 14.2917 15.2083 14.2917V-3.70833ZM7.0829 -0.353217C4.8584 1.87903 3.75691 4.77294 3.74994 7.72877L21.7499 7.77123C21.7483 8.4535 21.6273 9.2864 21.2714 10.1661C20.9126 11.0531 20.3955 11.788 19.8329 12.3526L7.0829 -0.353217ZM3.74992 7.75V14.6333H21.7499V7.75H3.74992ZM6.57031 21.1765C6.56526 21.1717 6.54797 21.1542 6.52646 21.1253C6.50488 21.0963 6.49006 21.0705 6.48236 21.0551L22.5821 13.0053C21.657 11.1552 20.4279 9.50532 18.9295 8.09022L6.57031 21.1765ZM6.48236 21.0551C6.37476 20.8399 6.30153 20.6253 6.2578 20.4305C6.21477 20.2388 6.20825 20.1023 6.20825 20.0417H24.2083C24.2083 17.6769 23.7168 15.2748 22.5821 13.0053L6.48236 21.0551ZM6.20825 20.0417V24.9583H24.2083V20.0417H6.20825Z" fill="#115FAA" fill-opacity="0.9" mask="url(#path-1-inside-1_218_42)"/>
</svg>
