<svg width="62" height="62" viewBox="0 0 62 62" fill="none" xmlns="http://www.w3.org/2000/svg">
<g clip-path="url(#clip0_218_36)">
<path d="M15.5115 29.9846V46.4884H32.0152L28.5733 43.0465H18.9533V33.4265L15.5115 29.9846Z" fill="#115FAA" fill-opacity="0.9"/>
<path d="M60.0321 55.5921L55.093 50.5842V55.093H6.90698V47.9512H10.3488V45.1977H6.90698V33.7535H10.3488V31H6.90698V19.9861H10.3488V17.2326H6.90698V7.61257L34.3386 34.8893V30.0363L6.40791 2.24327C6.1672 2.00057 5.85967 1.83505 5.52452 1.76781C5.18937 1.70058 4.8418 1.73467 4.5261 1.86575C4.21041 1.99683 3.9409 2.21895 3.75194 2.5038C3.56298 2.78864 3.46313 3.12331 3.46512 3.46513V56.814C3.46512 57.2704 3.64643 57.7081 3.96917 58.0308C4.2919 58.3536 4.72963 58.5349 5.18605 58.5349H58.8102C59.1521 58.5369 59.4867 58.437 59.7716 58.2481C60.0564 58.0591 60.2785 57.7896 60.4096 57.4739C60.5407 57.1582 60.5748 56.8106 60.5075 56.4755C60.4403 56.1403 60.2748 55.8328 60.0321 55.5921Z" fill="#115FAA" fill-opacity="0.9"/>
<path d="M41.3254 51.6511H48.2091C49.122 51.6511 49.9974 51.2885 50.6429 50.6431C51.2884 49.9976 51.651 49.1221 51.651 48.2093V14.9953L47.6928 7.7158C47.3867 7.18544 46.9447 6.74636 46.4122 6.44385C45.8798 6.14134 45.2763 5.98635 44.664 5.99487C44.0378 5.99984 43.4249 6.17554 42.8912 6.50305C42.3575 6.83055 41.9232 7.29746 41.6352 7.85348L37.8835 15.0298V48.2093C37.8835 49.1221 38.2462 49.9976 38.8916 50.6431C39.5371 51.2885 40.4126 51.6511 41.3254 51.6511ZM41.3254 15.8558L44.664 9.36789L48.2091 15.873V41.3256H41.3254V15.8558ZM41.3254 44.1307H48.2091V48.3298H41.3254V44.1307Z" fill="#115FAA" fill-opacity="0.9"/>
</g>
<defs>
<clipPath id="clip0_218_36">
<rect width="61.9535" height="61.9535" fill="white" transform="translate(0.0231934 0.0232544)"/>
</clipPath>
</defs>
</svg>
