<svg width="48" height="48" viewBox="0 0 48 48" fill="none" xmlns="http://www.w3.org/2000/svg">
<path fill-rule="evenodd" clip-rule="evenodd" d="M18.8532 9.11599C11.3232 13.952 7.14017 19.58 6.30317 26.003C5.00017 36 13.9402 40.893 18.4702 36.497C23.0002 32.1 20.2852 26.52 17.0052 24.994C13.7252 23.469 11.7192 24 12.0692 21.961C12.4192 19.923 17.0852 14.271 21.1852 11.639C21.3305 11.5154 21.4232 11.3411 21.4443 11.1516C21.4655 10.9621 21.4136 10.7716 21.2992 10.619L20.2852 9.29999C19.8452 8.72799 19.4232 8.74999 18.8532 9.11499M38.6792 9.11599C31.1492 13.952 26.9652 19.581 26.1292 26.003C24.8262 36 33.7662 40.893 38.2962 36.497C42.8262 32.1 40.1112 26.52 36.8302 24.994C33.5502 23.469 31.5442 24 31.8942 21.961C32.2442 19.923 36.9112 14.271 41.0112 11.639C41.1563 11.5153 41.2488 11.3409 41.2698 11.1514C41.2908 10.9619 41.2387 10.7714 41.1242 10.619L40.1102 9.29999C39.6702 8.72799 39.2482 8.74999 38.6792 9.11499" fill="#222222"/>
</svg>
