<svg width="40" height="40" viewBox="0 0 67 67" fill="none" xmlns="http://www.w3.org/2000/svg">
<path fill-rule="evenodd" clip-rule="evenodd" d="M33.5 67C37.8993 67 42.2555 66.1335 46.3199 64.45C50.3843 62.7664 54.0773 60.2988 57.1881 57.1881C60.2988 54.0773 62.7664 50.3843 64.45 46.3199C66.1335 42.2555 67 37.8993 67 33.5C67 29.1007 66.1335 24.7445 64.45 20.6801C62.7664 16.6157 60.2988 12.9227 57.1881 9.81192C54.0773 6.70116 50.3843 4.23357 46.3199 2.55004C42.2555 0.866503 37.8993 -6.55544e-08 33.5 0C24.6152 1.32393e-07 16.0944 3.52945 9.81192 9.81192C3.52945 16.0944 0 24.6152 0 33.5C0 42.3848 3.52945 50.9056 9.81192 57.1881C16.0944 63.4705 24.6152 67 33.5 67ZM32.6364 47.0489L51.2476 24.7156L45.5302 19.9511L29.5247 39.1541L21.2427 30.8684L15.9795 36.1316L27.1462 47.2983L30.0272 50.1793L32.6364 47.0489Z" fill="#22C55E"/>
</svg>
