<svg width="65" height="65" viewBox="0 0 65 65" fill="none" xmlns="http://www.w3.org/2000/svg">
<path d="M51.1877 56.875L36.3595 42.0469L42.047 36.3594L56.8752 51.1875L51.1877 56.875ZM13.8127 56.875L8.12516 51.1875L26.8127 32.5L22.2085 27.8958L20.3127 29.7917L16.8595 26.3385V31.8906L14.9637 33.7865L6.771 25.5937L8.66683 23.6979H14.2189L10.8335 20.3125L20.4481 10.6979C21.3509 9.79513 22.3213 9.14062 23.3595 8.73437C24.3977 8.32812 25.4585 8.12499 26.5418 8.12499C27.6252 8.12499 28.6859 8.32812 29.7241 8.73437C30.7623 9.14062 31.7328 9.79513 32.6356 10.6979L26.4064 16.9271L29.7918 20.3125L27.896 22.2083L32.5002 26.8125L38.5939 20.7187C38.4134 20.2222 38.2671 19.7031 38.1552 19.1615C38.0432 18.6198 37.9863 18.0781 37.9845 17.5365C37.9845 14.8733 38.8991 12.6271 40.7281 10.7981C42.5571 8.96909 44.8023 8.05548 47.4637 8.05728C48.1408 8.05728 48.7845 8.12499 49.3947 8.26041C50.005 8.39583 50.6252 8.59895 51.2554 8.86978L44.5522 15.5729L49.4272 20.4479L56.1304 13.7448C56.4463 14.3767 56.6612 14.9969 56.775 15.6054C56.8887 16.2139 56.9447 16.8576 56.9429 17.5365C56.9429 20.1996 56.0293 22.4458 54.202 24.2748C52.3748 26.1038 50.1287 27.0174 47.4637 27.0156C46.922 27.0156 46.3804 26.9705 45.8387 26.8802C45.297 26.7899 44.7779 26.6319 44.2814 26.4062L13.8127 56.875Z" fill="#115FAA"/>
</svg>
