<svg width="50" height="67" viewBox="0 0 50 67" fill="none" xmlns="http://www.w3.org/2000/svg">
<path d="M3.125 67H46.875C48.5979 67 50 65.5909 50 63.8594V19.8906C50 19.855 49.9833 19.8257 49.9812 19.7922C49.9771 19.7441 49.9646 19.7022 49.9542 19.6561C49.9215 19.5107 49.8575 19.3742 49.7667 19.2562C49.7521 19.2374 49.7542 19.2143 49.7396 19.1955L33.0729 0.35175C33.0667 0.345469 33.0583 0.345469 33.0521 0.339188C32.9249 0.205628 32.7645 0.108747 32.5875 0.058625C32.5479 0.0460625 32.5125 0.041875 32.4708 0.0355938C32.4104 0.025125 32.3542 0 32.2917 0H3.125C1.40208 0 0 1.40909 0 3.14062V63.8594C0 65.5909 1.40208 67 3.125 67ZM33.3333 3.80016L46.6396 18.8438H34.375C33.9167 18.8438 33.3333 17.9644 33.3333 17.2734V3.80016ZM2.08333 3.14062C2.08333 2.86298 2.19308 2.5967 2.38843 2.40037C2.58378 2.20405 2.84873 2.09375 3.125 2.09375H31.25V17.2734C31.25 18.9673 32.6146 20.9375 34.375 20.9375H47.9167V63.8594C47.9167 64.137 47.8069 64.4033 47.6116 64.5996C47.4162 64.796 47.1513 64.9062 46.875 64.9062H3.125C2.54167 64.9062 2.08333 64.4456 2.08333 63.8594V3.14062Z" fill="#115FAA"/>
<path d="M11.4582 29.3125H38.5415C38.8178 29.3125 39.0827 29.2022 39.2781 29.0059C39.4734 28.8096 39.5832 28.5433 39.5832 28.2656C39.5832 27.988 39.4734 27.7217 39.2781 27.5254C39.0827 27.329 38.8178 27.2188 38.5415 27.2188H11.4582C11.1819 27.2188 10.917 27.329 10.7216 27.5254C10.5263 27.7217 10.4165 27.988 10.4165 28.2656C10.4165 28.5433 10.5263 28.8096 10.7216 29.0059C10.917 29.2022 11.1819 29.3125 11.4582 29.3125ZM11.4582 37.6875H38.5415C38.8178 37.6875 39.0827 37.5772 39.2781 37.3809C39.4734 37.1846 39.5832 36.9183 39.5832 36.6406C39.5832 36.363 39.4734 36.0967 39.2781 35.9004C39.0827 35.704 38.8178 35.5938 38.5415 35.5938H11.4582C11.1819 35.5938 10.917 35.704 10.7216 35.9004C10.5263 36.0967 10.4165 36.363 10.4165 36.6406C10.4165 36.9183 10.5263 37.1846 10.7216 37.3809C10.917 37.5772 11.1819 37.6875 11.4582 37.6875ZM11.4582 20.9375H23.9582C24.2344 20.9375 24.4994 20.8272 24.6947 20.6309C24.8901 20.4346 24.9998 20.1683 24.9998 19.8906C24.9998 19.613 24.8901 19.3467 24.6947 19.1504C24.4994 18.954 24.2344 18.8438 23.9582 18.8438H11.4582C11.1819 18.8438 10.917 18.954 10.7216 19.1504C10.5263 19.3467 10.4165 19.613 10.4165 19.8906C10.4165 20.1683 10.5263 20.4346 10.7216 20.6309C10.917 20.8272 11.1819 20.9375 11.4582 20.9375ZM11.4582 46.0625H38.5415C38.8178 46.0625 39.0827 45.9522 39.2781 45.7559C39.4734 45.5596 39.5832 45.2933 39.5832 45.0156C39.5832 44.738 39.4734 44.4717 39.2781 44.2754C39.0827 44.079 38.8178 43.9688 38.5415 43.9688H11.4582C11.1819 43.9688 10.917 44.079 10.7216 44.2754C10.5263 44.4717 10.4165 44.738 10.4165 45.0156C10.4165 45.2933 10.5263 45.5596 10.7216 45.7559C10.917 45.9522 11.1819 46.0625 11.4582 46.0625ZM11.4582 54.4375H38.5415C38.8178 54.4375 39.0827 54.3272 39.2781 54.1309C39.4734 53.9346 39.5832 53.6683 39.5832 53.3906C39.5832 53.113 39.4734 52.8467 39.2781 52.6504C39.0827 52.454 38.8178 52.3438 38.5415 52.3438H11.4582C11.1819 52.3438 10.917 52.454 10.7216 52.6504C10.5263 52.8467 10.4165 53.113 10.4165 53.3906C10.4165 53.6683 10.5263 53.9346 10.7216 54.1309C10.917 54.3272 11.1819 54.4375 11.4582 54.4375Z" fill="#115FAA"/>
</svg>
