<svg width="51" height="51" viewBox="0 0 51 51" fill="none" xmlns="http://www.w3.org/2000/svg">
<path d="M46.0364 21.7855L26.9114 4.78552C26.5225 4.44018 26.0205 4.24945 25.5004 4.24945C24.9803 4.24945 24.4783 4.44018 24.0894 4.78552L4.96443 21.7855C4.54287 22.1597 4.28723 22.6861 4.25375 23.2488C4.22028 23.8115 4.41171 24.3645 4.78593 24.786C5.16015 25.2076 5.68651 25.4632 6.24921 25.4967C6.81191 25.5302 7.36487 25.3387 7.78643 24.9645L8.50043 24.3291V44.625C8.50043 45.1886 8.72431 45.7291 9.12283 46.1276C9.52134 46.5261 10.0618 46.75 10.6254 46.75H40.3754C40.939 46.75 41.4795 46.5261 41.878 46.1276C42.2766 45.7291 42.5004 45.1886 42.5004 44.625V24.3291L43.2144 24.9645C43.636 25.3387 44.1889 25.5302 44.7517 25.4967C45.0303 25.4801 45.3029 25.4088 45.554 25.2869C45.805 25.1649 46.0296 24.9948 46.2149 24.786C46.4002 24.5773 46.5426 24.3341 46.6339 24.0703C46.7252 23.8066 46.7637 23.5274 46.7471 23.2488C46.7305 22.9702 46.6592 22.6975 46.5373 22.4465C46.4154 22.1954 46.2452 21.9708 46.0364 21.7855ZM19.5164 42.5C19.9492 41.2579 20.7578 40.1812 21.83 39.4193C22.9023 38.6573 24.185 38.248 25.5004 38.248C26.8158 38.248 28.0986 38.6573 29.1708 39.4193C30.2431 40.1812 31.0517 41.2579 31.4844 42.5H19.5164ZM22.3129 30.8125C22.3129 30.1821 22.4999 29.5658 22.8501 29.0416C23.2004 28.5175 23.6982 28.1089 24.2806 27.8677C24.8631 27.6264 25.504 27.5633 26.1223 27.6863C26.7406 27.8093 27.3086 28.1128 27.7543 28.5586C28.2001 29.0044 28.5037 29.5724 28.6267 30.1907C28.7497 30.809 28.6866 31.4499 28.4453 32.0323C28.204 32.6148 27.7955 33.1126 27.2713 33.4628C26.7471 33.8131 26.1309 34 25.5004 34C24.6551 34 23.8443 33.6642 23.2465 33.0664C22.6488 32.4686 22.3129 31.6579 22.3129 30.8125ZM38.2504 42.5H35.9108C35.6169 41.0911 35.0399 39.7566 34.2147 38.5775C33.3896 37.3984 32.3334 36.3992 31.1104 35.6405C32.2814 34.304 32.9304 32.5895 32.9379 30.8125C32.9379 28.84 32.1543 26.9482 30.7595 25.5534C29.3647 24.1586 27.473 23.375 25.5004 23.375C23.5279 23.375 21.6361 24.1586 20.2413 25.5534C18.8465 26.9482 18.0629 28.84 18.0629 30.8125C18.0705 32.5895 18.7194 34.304 19.8904 35.6405C18.667 36.399 17.6105 37.3981 16.7849 38.5772C15.9594 39.7564 15.382 41.091 15.0879 42.5H12.7504V20.5509L25.5004 9.21827L38.2504 20.5509V42.5Z" fill="#115FAA"/>
</svg>
