<svg width="18" height="18" viewBox="0 0 18 18" fill="none" xmlns="http://www.w3.org/2000/svg">
<path d="M8.52074 4.21492C6.10335 4.21492 4.15347 6.1856 4.15347 8.62877C4.15347 11.072 6.10335 13.0426 8.52074 13.0426C10.9381 13.0426 12.888 11.072 12.888 8.62877C12.888 6.1856 10.9381 4.21492 8.52074 4.21492ZM8.52074 11.4984C6.95856 11.4984 5.68144 10.2115 5.68144 8.62877C5.68144 7.04609 6.95476 5.75919 8.52074 5.75919C10.0867 5.75919 11.36 7.04609 11.36 8.62877C11.36 10.2115 10.0829 11.4984 8.52074 11.4984ZM14.0853 4.03437C14.0853 4.60675 13.6292 5.06389 13.0667 5.06389C12.5003 5.06389 12.048 4.60291 12.048 4.03437C12.048 3.46584 12.5041 3.00486 13.0667 3.00486C13.6292 3.00486 14.0853 3.46584 14.0853 4.03437ZM16.9778 5.07925C16.9132 3.70017 16.6015 2.47858 15.6019 1.47211C14.606 0.465646 13.3973 0.150646 12.0328 0.0814993C10.6265 0.000828367 6.41122 0.000828367 5.00488 0.0814993C3.64414 0.146804 2.43545 0.461805 1.4358 1.46827C0.436157 2.47474 0.128281 3.69632 0.0598647 5.07541C-0.0199549 6.49676 -0.0199549 10.7569 0.0598647 12.1783C0.124481 13.5574 0.436157 14.779 1.4358 15.7854C2.43545 16.7919 3.64034 17.1069 5.00488 17.176C6.41122 17.2567 10.6265 17.2567 12.0328 17.176C13.3973 17.1107 14.606 16.7957 15.6019 15.7854C16.5977 14.779 16.9094 13.5574 16.9778 12.1783C17.0576 10.7569 17.0576 6.5006 16.9778 5.07925ZM15.161 13.7034C14.8645 14.4563 14.2906 15.0363 13.5418 15.3398C12.4205 15.7893 9.75984 15.6856 8.52074 15.6856C7.28164 15.6856 4.61718 15.7854 3.49971 15.3398C2.75473 15.0402 2.18079 14.4601 1.88051 13.7034C1.4358 12.5701 1.53843 9.88109 1.53843 8.62877C1.53843 7.37645 1.4396 4.68358 1.88051 3.55419C2.17698 2.80126 2.75092 2.2212 3.49971 1.91772C4.62098 1.46827 7.28164 1.57199 8.52074 1.57199C9.75984 1.57199 12.4243 1.47211 13.5418 1.91772C14.2868 2.21736 14.8607 2.79742 15.161 3.55419C15.6057 4.68742 15.5031 7.37645 15.5031 8.62877C15.5031 9.88109 15.6057 12.574 15.161 13.7034Z" fill="white" fill-opacity="1"/>
</svg>
