<svg width="61" height="51" viewBox="0 0 61 51" fill="none" xmlns="http://www.w3.org/2000/svg">
<path d="M58.9375 46.8125H54.875V28.5312L55.4691 29.1254C55.851 29.5065 56.3685 29.7204 56.908 29.7199C57.4475 29.7194 57.9648 29.5047 58.3459 29.1228C58.727 28.741 58.9409 28.2234 58.9404 27.6839C58.9399 27.1444 58.7252 26.6272 58.3434 26.2461L33.3717 1.28202C32.6099 0.520725 31.577 0.0930786 30.5 0.0930786C29.423 0.0930786 28.3901 0.520725 27.6283 1.28202L2.65664 26.2461C2.27583 26.6272 2.06203 27.144 2.06227 27.6828C2.06251 28.2216 2.27676 28.7382 2.65791 29.119C3.03906 29.4998 3.55587 29.7136 4.09465 29.7134C4.63343 29.7132 5.15005 29.4989 5.53086 29.1178L6.125 28.5312V46.8125H2.0625C1.52378 46.8125 1.00712 47.0265 0.626189 47.4074C0.245256 47.7884 0.03125 48.305 0.03125 48.8437C0.03125 49.3825 0.245256 49.8991 0.626189 50.28C1.00712 50.661 1.52378 50.875 2.0625 50.875H58.9375C59.4762 50.875 59.9929 50.661 60.3738 50.28C60.7547 49.8991 60.9688 49.3825 60.9688 48.8437C60.9688 48.305 60.7547 47.7884 60.3738 47.4074C59.9929 47.0265 59.4762 46.8125 58.9375 46.8125ZM10.1875 24.4687L30.5 4.15623L50.8125 24.4687V46.8125H38.625V32.5937C38.625 32.055 38.411 31.5384 38.0301 31.1574C37.6491 30.7765 37.1325 30.5625 36.5938 30.5625H24.4062C23.8675 30.5625 23.3509 30.7765 22.9699 31.1574C22.589 31.5384 22.375 32.055 22.375 32.5937V46.8125H10.1875V24.4687ZM34.5625 46.8125H26.4375V34.625H34.5625V46.8125Z" fill="#115FAA" fill-opacity="0.9"/>
</svg>
