<svg width="15" height="17" viewBox="0 0 15 17" fill="none" xmlns="http://www.w3.org/2000/svg">
<path d="M14.4522 6.86525C13.0316 6.86868 11.6458 6.42101 10.4906 5.58547V11.4128C10.4902 12.492 10.1637 13.5455 9.5548 14.4322C8.9459 15.3189 8.08359 15.9967 7.08318 16.3749C6.08277 16.753 4.99195 16.8136 3.95656 16.5484C2.92118 16.2832 1.99059 15.705 1.28923 14.891C0.587864 14.077 0.14916 13.066 0.0317758 11.9933C-0.0856087 10.9205 0.123921 9.83715 0.632349 8.88799C1.14078 7.93882 1.92387 7.16912 2.87691 6.6818C3.82995 6.19448 4.90752 6.01277 5.96553 6.16096V9.09188C5.48138 8.93801 4.96149 8.94264 4.48011 9.10513C3.99873 9.26761 3.58047 9.57964 3.28505 9.99665C2.98964 10.4137 2.83219 10.9143 2.83518 11.4271C2.83817 11.94 3.00145 12.4387 3.3017 12.8522C3.60195 13.2656 4.02382 13.5727 4.50707 13.7294C4.99031 13.8862 5.51022 13.8846 5.99253 13.725C6.47485 13.5653 6.89492 13.2558 7.19275 12.8406C7.49058 12.4253 7.65093 11.9256 7.65092 11.4128V0.0209961H10.4906C10.4886 0.263302 10.5087 0.505277 10.5506 0.743863C10.6493 1.27647 10.8544 1.78314 11.1535 2.23288C11.4527 2.68261 11.8394 3.06597 12.2902 3.35949C12.9315 3.78796 13.6834 4.01633 14.4522 4.01616V6.86525Z" fill="#BFCEDD"/>
</svg>
