<svg width="89" height="79" viewBox="0 0 89 79" fill="none" xmlns="http://www.w3.org/2000/svg">
<g clip-path="url(#clip0_545_9)">
<path d="M44.5 12.3438C34.4257 12.3438 26.1438 16.9109 19.7933 22.7896C13.8445 28.3135 9.73442 34.8711 7.63303 39.5C9.73442 44.1289 13.8445 50.6865 19.7778 56.2103C26.1438 62.0891 34.4257 66.6562 44.5 66.6562C54.5744 66.6562 62.8563 62.0891 69.2068 56.2103C75.1556 50.6865 79.2657 44.1289 81.3671 39.5C79.2657 34.8711 75.1556 28.3135 69.2223 22.7896C62.8563 16.9109 54.5744 12.3438 44.5 12.3438ZM14.7407 17.3738C22.0183 10.6156 32.0153 4.9375 44.5 4.9375C56.9848 4.9375 66.9818 10.6156 74.2594 17.3738C81.4907 24.0857 86.3269 32.0937 88.6292 37.6021C89.1391 38.8211 89.1391 40.1789 88.6292 41.3978C86.3269 46.9062 81.4907 54.9297 74.2594 61.6262C66.9818 68.3844 56.9848 74.0625 44.5 74.0625C32.0153 74.0625 22.0183 68.3844 14.7407 61.6262C7.50942 54.9297 2.67313 46.9062 0.386328 41.3978C-0.123568 40.1789 -0.123568 38.8211 0.386328 37.6021C2.67313 32.0937 7.50942 24.0703 14.7407 17.3738ZM44.5 51.8438C51.3296 51.8438 56.8612 46.3199 56.8612 39.5C56.8612 32.6801 51.3296 27.1562 44.5 27.1562H44.191C44.3919 27.9432 44.5 28.7764 44.5 29.625C44.5 35.0717 40.0655 39.5 34.6112 39.5C33.7613 39.5 32.927 39.392 32.1389 39.1914V39.5C32.1389 46.3199 37.6705 51.8438 44.5 51.8438ZM44.5 19.75C49.7454 19.75 54.776 21.8308 58.485 25.5346C62.1941 29.2385 64.2778 34.262 64.2778 39.5C64.2778 44.738 62.1941 49.7615 58.485 53.4654C54.776 57.1692 49.7454 59.25 44.5 59.25C39.2547 59.25 34.2241 57.1692 30.515 53.4654C26.806 49.7615 24.7223 44.738 24.7223 39.5C24.7223 34.262 26.806 29.2385 30.515 25.5346C34.2241 21.8308 39.2547 19.75 44.5 19.75Z" fill="#115FAA"/>
</g>
<defs>
<clipPath id="clip0_545_9">
<rect width="89" height="79" fill="white"/>
</clipPath>
</defs>
</svg>
