<svg width="40" height="40" viewBox="0 0 65 65" fill="none" xmlns="http://www.w3.org/2000/svg">
<path d="M32.5 0C50.4497 0 65 14.5503 65 32.5C65 50.4497 50.4497 65 32.5 65C14.5503 65 0 50.4497 0 32.5C0 14.5503 14.5503 0 32.5 0ZM32.5 42.25C31.638 42.25 30.8114 42.5924 30.2019 43.2019C29.5924 43.8114 29.25 44.638 29.25 45.5C29.25 46.362 29.5924 47.1886 30.2019 47.7981C30.8114 48.4076 31.638 48.75 32.5 48.75C33.362 48.75 34.1886 48.4076 34.7981 47.7981C35.4076 47.1886 35.75 46.362 35.75 45.5C35.75 44.638 35.4076 43.8114 34.7981 43.2019C34.1886 42.5924 33.362 42.25 32.5 42.25ZM32.5 13C31.704 13.0001 30.9357 13.2924 30.3408 13.8213C29.7459 14.3503 29.3659 15.0792 29.2727 15.8697L29.25 16.25V35.75C29.2509 36.5784 29.5681 37.3751 30.1368 37.9774C30.7054 38.5798 31.4826 38.9423 32.3095 38.9908C33.1365 39.0394 33.9507 38.7703 34.586 38.2386C35.2212 37.707 35.6294 36.9528 35.7273 36.1302L35.75 35.75V16.25C35.75 15.388 35.4076 14.5614 34.7981 13.9519C34.1886 13.3424 33.362 13 32.5 13Z" fill="#FFD233"/>
</svg>
