<svg width="28" height="20" viewBox="0 0 28 20" fill="none" xmlns="http://www.w3.org/2000/svg">
<path d="M26.4921 3.01831C26.1809 1.83437 25.2641 0.901934 24.1 0.585499C21.9899 0.010498 13.5288 0.010498 13.5288 0.010498C13.5288 0.010498 5.06768 0.010498 2.95756 0.585499C1.79343 0.901984 0.876577 1.83437 0.565393 3.01831C0 5.16428 0 9.64163 0 9.64163C0 9.64163 0 14.119 0.565393 16.265C0.876577 17.4489 1.79343 18.3425 2.95756 18.6589C5.06768 19.2339 13.5288 19.2339 13.5288 19.2339C13.5288 19.2339 21.9898 19.2339 24.1 18.6589C25.2641 18.3425 26.1809 17.4489 26.4921 16.265C27.0575 14.119 27.0575 9.64163 27.0575 9.64163C27.0575 9.64163 27.0575 5.16428 26.4921 3.01831ZM10.7615 13.7067V5.57653L17.8333 9.64173L10.7615 13.7067Z" fill="#f8fafc"/>
</svg>
