<svg width="37" height="37" viewBox="0 0 37 37" fill="none" xmlns="http://www.w3.org/2000/svg">
<path d="M13.8744 16.9063C13.2345 17.5471 12.8751 18.4157 12.875 19.3213V24.125H17.7088C18.6144 24.125 19.4844 23.765 20.1256 23.1238L34.3756 8.86625C34.6929 8.54902 34.9446 8.17238 35.1164 7.75784C35.2881 7.34331 35.3765 6.89901 35.3765 6.45032C35.3765 6.00162 35.2881 5.55732 35.1164 5.14279C34.9446 4.72826 34.6929 4.35162 34.3756 4.03438L32.9675 2.62625C32.6502 2.30866 32.2735 2.05671 31.8588 1.88481C31.4441 1.71291 30.9995 1.62444 30.5506 1.62444C30.1017 1.62444 29.6572 1.71291 29.2425 1.88481C28.8278 2.05671 28.451 2.30866 28.1338 2.62625L13.8744 16.9063Z" stroke="#F8F8F8" stroke-width="3" stroke-linecap="round" stroke-linejoin="round"/>
<path d="M35.375 18.5C35.375 26.4556 35.375 30.4325 32.9037 32.9037C30.4325 35.375 26.4538 35.375 18.5 35.375C10.5444 35.375 6.5675 35.375 4.09625 32.9037C1.625 30.4325 1.625 26.4538 1.625 18.5C1.625 10.5444 1.625 6.5675 4.09625 4.09625C6.5675 1.625 10.5462 1.625 18.5 1.625" stroke="#F8F8F8" stroke-width="3" stroke-linecap="round" stroke-linejoin="round"/>
</svg>
