<svg width="65" height="65" viewBox="0 0 65 65" fill="none" xmlns="http://www.w3.org/2000/svg">
<path d="M32.5 6.60156C27.3778 6.60156 22.3706 8.12048 18.1116 10.9662C13.8526 13.812 10.5332 17.8568 8.57297 22.5891C6.61278 27.3214 6.09991 32.5287 7.09921 37.5525C8.0985 42.5763 10.5651 47.191 14.1871 50.813C17.809 54.4349 22.4237 56.9015 27.4475 57.9008C32.4713 58.9001 37.6786 58.3872 42.4109 56.427C47.1432 54.4668 51.188 51.1474 54.0338 46.8884C56.8795 42.6294 58.3984 37.6222 58.3984 32.5C58.3904 25.6338 55.6592 19.0511 50.8041 14.1959C45.9489 9.34079 39.3662 6.60963 32.5 6.60156ZM53.2111 22.8516H42.9584C41.7361 18.1414 39.5072 13.7521 36.4254 9.98613C40.0507 10.6254 43.4687 12.1282 46.3905 14.3676C49.3122 16.6069 51.6517 19.517 53.2111 22.8516ZM55.3516 32.5C55.3533 34.7363 55.0256 36.9607 54.3791 39.1016H43.6236C44.3652 34.7318 44.3652 30.2682 43.6236 25.8984H54.3791C55.0256 28.0393 55.3533 30.2637 55.3516 32.5ZM32.5 54.8006C31.0332 53.3043 29.7395 51.6477 28.6432 49.8621C27.1636 47.4556 26.0141 44.8611 25.2256 42.1484H39.7744C38.9859 44.8611 37.8364 47.4556 36.3568 49.8621C35.2605 51.6477 33.9668 53.3043 32.5 54.8006ZM24.4893 39.1016C23.6599 34.7396 23.6599 30.2604 24.4893 25.8984H40.5108C41.3401 30.2604 41.3401 34.7396 40.5108 39.1016H24.4893ZM9.64845 32.5C9.64674 30.2637 9.97441 28.0393 10.6209 25.8984H21.3764C20.6348 30.2682 20.6348 34.7318 21.3764 39.1016H10.6209C9.97441 36.9607 9.64674 34.7363 9.64845 32.5ZM32.5 10.1994C33.9668 11.6957 35.2605 13.3523 36.3568 15.1379C37.8364 17.5444 38.9859 20.1389 39.7744 22.8516H25.2256C26.0141 20.1389 27.1636 17.5444 28.6432 15.1379C29.7395 13.3523 31.0332 11.6957 32.5 10.1994ZM28.5746 9.98613C25.4928 13.7521 23.2639 18.1414 22.0416 22.8516H11.7889C13.3483 19.517 15.6878 16.6069 18.6095 14.3676C21.5313 12.1282 24.9493 10.6254 28.5746 9.98613ZM11.7889 42.1484H22.0416C23.2639 46.8586 25.4928 51.2479 28.5746 55.0139C24.9493 54.3746 21.5313 52.8718 18.6095 50.6324C15.6878 48.3931 13.3483 45.483 11.7889 42.1484ZM36.4178 55.0139C39.5023 51.2486 41.7338 46.8593 42.9584 42.1484H53.2111C51.6517 45.483 49.3122 48.3931 46.3905 50.6324C43.4687 52.8718 40.0507 54.3746 36.4254 55.0139H36.4178Z" fill="white"/>
</svg>
