<svg width="40" height="40" viewBox="0 0 38 38" fill="none" xmlns="http://www.w3.org/2000/svg">
<path fill-rule="evenodd" clip-rule="evenodd" d="M2.96875 19C2.96875 18.5276 3.15642 18.0745 3.49047 17.7405C3.82452 17.4064 4.27758 17.2188 4.75 17.2188H28.9512L22.4913 10.7588C22.1766 10.4211 22.0053 9.97448 22.0135 9.51301C22.0216 9.05155 22.2085 8.61126 22.5349 8.2849C22.8613 7.95854 23.3015 7.7716 23.763 7.76346C24.2245 7.75532 24.6711 7.92661 25.0087 8.24125L34.5087 17.7413C34.8423 18.0752 35.0297 18.528 35.0297 19C35.0297 19.472 34.8423 19.9248 34.5087 20.2588L25.0087 29.7588C24.8457 29.9338 24.649 30.0741 24.4305 30.1715C24.212 30.2688 23.9762 30.3212 23.737 30.3254C23.4978 30.3296 23.2603 30.2856 23.0385 30.196C22.8167 30.1065 22.6152 29.9731 22.446 29.804C22.2769 29.6348 22.1435 29.4333 22.054 29.2115C21.9644 28.9897 21.9204 28.7522 21.9246 28.513C21.9288 28.2738 21.9812 28.038 22.0785 27.8195C22.1759 27.601 22.3162 27.4043 22.4913 27.2413L28.9512 20.7813H4.75C4.27758 20.7813 3.82452 20.5936 3.49047 20.2595C3.15642 19.9255 2.96875 19.4724 2.96875 19Z" fill="white"/>
</svg>
