<svg width="89" height="89" viewBox="0 0 89 89" fill="none" xmlns="http://www.w3.org/2000/svg">
<path d="M41.6643 29.4802C39.1843 29.4802 36.8749 29.9452 34.7359 30.8752C32.597 31.8052 30.7061 33.0761 29.0631 34.6881C27.4201 36.3 26.1337 38.2065 25.2037 40.4074C24.2737 42.6084 23.8087 44.9178 23.8087 47.3357C23.8087 49.8157 24.2737 52.1251 25.2037 54.2641C26.1337 56.403 27.4046 58.294 29.0166 59.9369C30.6286 61.5799 32.5195 62.8663 34.6894 63.7963C36.8594 64.7263 39.1843 65.1913 41.6643 65.1913C44.1132 65.1913 46.4226 64.7263 48.5926 63.7963C50.7625 62.8663 52.6535 61.5954 54.2654 59.9834C55.8774 58.3714 57.1638 56.4805 58.1248 54.3106C59.0858 52.1406 59.5508 49.8157 59.5198 47.3357C59.5198 45.3518 59.1788 43.3678 58.4968 41.3839H64.7276C64.9756 42.3759 65.1616 43.3678 65.2856 44.3598C65.4096 45.3518 65.4716 46.3438 65.4716 47.3357C65.4716 50.6217 64.8516 53.7061 63.6117 56.589C62.3717 59.4719 60.6668 61.9829 58.4968 64.1218C56.3269 66.2607 53.8004 67.9657 50.9175 69.2367C48.0346 70.5076 44.9502 71.1431 41.6643 71.1431C38.3783 71.1431 35.2939 70.5231 32.411 69.2832C29.5281 68.0432 27.0171 66.3382 24.8782 64.1683C22.7393 61.9984 21.0343 59.4719 19.7633 56.589C18.4924 53.7061 17.8724 50.6217 17.9034 47.3357C17.9034 44.0498 18.5234 40.9654 19.7633 38.0825C21.0033 35.1996 22.6928 32.6886 24.8317 30.5497C26.9707 28.4107 29.4971 26.7058 32.411 25.4348C35.3249 24.1639 38.4093 23.5284 41.6643 23.5284C42.6562 23.5284 43.6482 23.5904 44.6402 23.7144C45.6322 23.8384 46.6241 24.0244 47.6161 24.2724V30.5032C45.6322 29.8212 43.6482 29.4802 41.6643 29.4802ZM81.9322 36.6875C82.8622 40.1904 83.3272 43.7398 83.3272 47.3357C83.3272 51.1486 82.8312 54.822 81.8392 58.3559C80.8472 61.8899 79.4523 65.2068 77.6543 68.3067C75.8564 71.4066 73.6709 74.2275 71.098 76.7695C68.525 79.3114 65.7196 81.4813 62.6817 83.2793C59.6438 85.0772 56.3269 86.4877 52.731 87.5107C49.1351 88.5336 45.4462 89.0296 41.6643 88.9986C37.8514 88.9986 34.178 88.5026 30.6441 87.5107C27.1101 86.5187 23.7932 85.1237 20.6933 83.3258C17.5934 81.5278 14.7725 79.3424 12.2305 76.7695C9.68861 74.1965 7.51867 71.3911 5.72072 68.3532C3.92276 65.3153 2.5123 61.9984 1.48933 58.4024C0.466355 54.8065 -0.0296316 51.1176 0.00136761 47.3357C0.00136761 43.5228 0.497354 39.8494 1.48933 36.3155C2.4813 32.7816 3.87626 29.4647 5.67422 26.3648C7.47217 23.2649 9.65761 20.444 12.2305 17.902C14.8035 15.3601 17.6089 13.1902 20.6468 11.3922C23.6847 9.59424 27.0016 8.18378 30.5976 7.16081C34.1935 6.13784 37.8824 5.64185 41.6643 5.67285C45.2602 5.67285 48.8096 6.13784 52.3125 7.06781L47.6161 11.7642V12.1362C46.6241 11.9812 45.6322 11.8572 44.6402 11.7642C43.6482 11.6712 42.6562 11.6247 41.6643 11.6247C38.3783 11.6247 35.2164 12.0432 32.1785 12.8802C29.1406 13.7171 26.3042 14.9261 23.6692 16.5071C21.0343 18.088 18.6164 19.948 16.4154 22.0869C14.2145 24.2259 12.3545 26.6283 10.8356 29.2942C9.31662 31.9602 8.12315 34.8121 7.25518 37.85C6.3872 40.8879 5.95321 44.0498 5.95321 47.3357C5.95321 50.6217 6.3717 53.7836 7.20868 56.8215C8.04565 59.8594 9.25462 62.6958 10.8356 65.3308C12.4165 67.9657 14.2765 70.3836 16.4154 72.5846C18.5544 74.7855 20.9568 76.6455 23.6227 78.1644C26.2887 79.6834 29.1406 80.8769 32.1785 81.7448C35.2164 82.6128 38.3783 83.0468 41.6643 83.0468C44.9502 83.0468 48.1121 82.6283 51.15 81.7913C54.1879 80.9544 57.0244 79.7454 59.6593 78.1644C62.2942 76.5835 64.7122 74.7235 66.9131 72.5846C69.114 70.4456 70.974 68.0432 72.4929 65.3773C74.0119 62.7113 75.2054 59.8594 76.0733 56.8215C76.9413 53.7836 77.3753 50.6217 77.3753 47.3357C77.3753 46.3438 77.3288 45.3518 77.2358 44.3598C77.1428 43.3678 77.0188 42.3759 76.8638 41.3839H77.2358L81.9322 36.6875ZM53.5679 31.2007V17.8555L71.4235 0V17.5765H89L71.1445 35.4321H57.7993L47.4301 45.8013C47.5541 46.2663 47.6161 46.7778 47.6161 47.3357C47.6161 48.1727 47.4611 48.9477 47.1511 49.6607C46.8411 50.3737 46.4226 50.9936 45.8956 51.5206C45.3687 52.0476 44.7332 52.4816 43.9892 52.8226C43.2452 53.1636 42.4702 53.3186 41.6643 53.2876C40.8273 53.2876 40.0523 53.1326 39.3393 52.8226C38.6263 52.5126 38.0064 52.0941 37.4794 51.5671C36.9524 51.0401 36.5184 50.4047 36.1774 49.6607C35.8364 48.9167 35.6814 48.1417 35.7124 47.3357C35.7124 46.4988 35.8674 45.7238 36.1774 45.0108C36.4874 44.2978 36.9059 43.6778 37.4329 43.1509C37.9599 42.6239 38.5953 42.1899 39.3393 41.8489C40.0833 41.5079 40.8583 41.3529 41.6643 41.3839C42.2222 41.3839 42.7337 41.4459 43.1987 41.5699L53.5679 31.2007ZM59.5198 29.4802H68.68L74.6319 23.5284H65.4716V14.3681L59.5198 20.32V29.4802Z" fill="#115FAA"/>
</svg>
