<svg width="20" height="20" viewBox="0 0 20 20" fill="none" xmlns="http://www.w3.org/2000/svg">
<path d="M16.6287 2.88219C14.7995 1.02949 12.3634 0.010498 9.77463 0.010498C4.43111 0.010498 0.0829468 4.40405 0.0829468 9.80336C0.0829468 11.5281 0.52824 13.2132 1.37517 14.6998L0 19.7727L5.13834 18.4096C6.5528 19.1904 8.14625 19.6006 9.77026 19.6006H9.77463C15.1138 19.6006 19.558 15.2071 19.558 9.80778C19.558 7.19193 18.4579 4.73489 16.6287 2.88219ZM9.77463 17.9509C8.32524 17.9509 6.90642 17.5583 5.67094 16.8172L5.37845 16.6407L2.33124 17.448L3.14325 14.4439L2.95116 14.1352C2.14352 12.8383 1.72006 11.3429 1.72006 9.80336C1.72006 5.31717 5.33479 1.6647 9.779 1.6647C11.9312 1.6647 13.9525 2.51165 15.4718 4.05116C16.991 5.59067 17.9252 7.63305 17.9209 9.80778C17.9209 14.2984 14.2145 17.9509 9.77463 17.9509ZM14.1926 11.8546C13.9525 11.7311 12.7607 11.14 12.5381 11.0606C12.3154 10.9767 12.1539 10.937 11.9924 11.1841C11.8308 11.4311 11.3681 11.9781 11.224 12.1457C11.0843 12.3089 10.9403 12.331 10.7001 12.2075C9.27695 11.4884 8.34271 10.9238 7.4041 9.29608C7.15526 8.86378 7.65294 8.89466 8.11569 7.95948C8.19427 7.79627 8.15498 7.65511 8.09386 7.5316C8.03275 7.40808 7.54816 6.20382 7.34734 5.71418C7.15089 5.23777 6.95007 5.30394 6.80164 5.29512C6.66194 5.28629 6.50041 5.28629 6.33888 5.28629C6.17736 5.28629 5.91542 5.34805 5.69277 5.59067C5.47013 5.83769 4.84584 6.4288 4.84584 7.63305C4.84584 8.83731 5.7146 10.0019 5.83247 10.1651C5.95471 10.3283 7.53943 12.7986 9.97108 13.8617C11.5078 14.5322 12.1102 14.5895 12.8786 14.4748C13.3457 14.4042 14.3105 13.8837 14.5113 13.3103C14.7121 12.7368 14.7121 12.2472 14.651 12.1457C14.5943 12.0354 14.4327 11.9737 14.1926 11.8546Z" fill="#EBEAEA" fill-opacity="0.8"/>
</svg>
